<mxfile host="app.diagrams.net" agent="Mozilla/5.0 (Windows NT 10.0; Win64; x64) AppleWebKit/537.36 (KHTML, like Gecko) Chrome/134.0.0.0 Safari/537.36 Edg/134.0.0.0" version="26.1.1">
  <diagram name="Page-1" id="w5uYiCeUC3-1Ekl1BvNp">
    <mxGraphModel dx="1678" dy="888" grid="1" gridSize="10" guides="1" tooltips="1" connect="1" arrows="1" fold="1" page="1" pageScale="1" pageWidth="827" pageHeight="1169" math="0" shadow="0">
      <root>
        <mxCell id="0" />
        <mxCell id="1" parent="0" />
        <mxCell id="YeMgj4XDUtMSpW-O0WUr-66" value="" style="edgeStyle=orthogonalEdgeStyle;rounded=0;orthogonalLoop=1;jettySize=auto;html=1;" edge="1" parent="1" source="YeMgj4XDUtMSpW-O0WUr-7" target="YeMgj4XDUtMSpW-O0WUr-22">
          <mxGeometry relative="1" as="geometry" />
        </mxCell>
        <mxCell id="YeMgj4XDUtMSpW-O0WUr-7" value="&lt;font style=&quot;font-size: 16px;&quot;&gt;智能感知层&lt;/font&gt;" style="rounded=0;whiteSpace=wrap;html=1;fillColor=#dae8fc;strokeColor=#6c8ebf;" vertex="1" parent="1">
          <mxGeometry x="53.75" y="294" width="140" height="80" as="geometry" />
        </mxCell>
        <mxCell id="YeMgj4XDUtMSpW-O0WUr-81" style="edgeStyle=orthogonalEdgeStyle;rounded=0;orthogonalLoop=1;jettySize=auto;html=1;entryX=0.5;entryY=0;entryDx=0;entryDy=0;" edge="1" parent="1" source="YeMgj4XDUtMSpW-O0WUr-9" target="YeMgj4XDUtMSpW-O0WUr-15">
          <mxGeometry relative="1" as="geometry" />
        </mxCell>
        <mxCell id="YeMgj4XDUtMSpW-O0WUr-9" value="目标检测" style="rounded=0;whiteSpace=wrap;html=1;" vertex="1" parent="1">
          <mxGeometry x="53.75" y="568" width="60" height="30" as="geometry" />
        </mxCell>
        <mxCell id="YeMgj4XDUtMSpW-O0WUr-99" style="edgeStyle=orthogonalEdgeStyle;rounded=0;orthogonalLoop=1;jettySize=auto;html=1;entryX=0.5;entryY=0;entryDx=0;entryDy=0;" edge="1" parent="1" source="YeMgj4XDUtMSpW-O0WUr-10" target="YeMgj4XDUtMSpW-O0WUr-31">
          <mxGeometry relative="1" as="geometry" />
        </mxCell>
        <mxCell id="YeMgj4XDUtMSpW-O0WUr-10" value="&lt;font style=&quot;font-size: 16px;&quot;&gt;AR交互层&lt;/font&gt;" style="rounded=0;whiteSpace=wrap;html=1;fillColor=#dae8fc;strokeColor=#6c8ebf;" vertex="1" parent="1">
          <mxGeometry x="571.25" y="294" width="140" height="80" as="geometry" />
        </mxCell>
        <mxCell id="YeMgj4XDUtMSpW-O0WUr-79" style="edgeStyle=orthogonalEdgeStyle;rounded=0;orthogonalLoop=1;jettySize=auto;html=1;entryX=0.5;entryY=0;entryDx=0;entryDy=0;" edge="1" parent="1" source="YeMgj4XDUtMSpW-O0WUr-12" target="YeMgj4XDUtMSpW-O0WUr-9">
          <mxGeometry relative="1" as="geometry" />
        </mxCell>
        <mxCell id="YeMgj4XDUtMSpW-O0WUr-80" style="edgeStyle=orthogonalEdgeStyle;rounded=0;orthogonalLoop=1;jettySize=auto;html=1;exitX=0.5;exitY=1;exitDx=0;exitDy=0;entryX=0.5;entryY=0;entryDx=0;entryDy=0;" edge="1" parent="1" source="YeMgj4XDUtMSpW-O0WUr-12" target="YeMgj4XDUtMSpW-O0WUr-13">
          <mxGeometry relative="1" as="geometry" />
        </mxCell>
        <mxCell id="YeMgj4XDUtMSpW-O0WUr-12" value="获取RGB与深度图" style="rounded=0;whiteSpace=wrap;html=1;" vertex="1" parent="1">
          <mxGeometry x="71.25" y="495" width="105" height="40" as="geometry" />
        </mxCell>
        <mxCell id="YeMgj4XDUtMSpW-O0WUr-82" style="edgeStyle=orthogonalEdgeStyle;rounded=0;orthogonalLoop=1;jettySize=auto;html=1;entryX=0.5;entryY=0;entryDx=0;entryDy=0;" edge="1" parent="1" source="YeMgj4XDUtMSpW-O0WUr-13" target="YeMgj4XDUtMSpW-O0WUr-15">
          <mxGeometry relative="1" as="geometry" />
        </mxCell>
        <mxCell id="YeMgj4XDUtMSpW-O0WUr-13" value="深度感知" style="rounded=0;whiteSpace=wrap;html=1;" vertex="1" parent="1">
          <mxGeometry x="133.75" y="568" width="60" height="30" as="geometry" />
        </mxCell>
        <mxCell id="YeMgj4XDUtMSpW-O0WUr-88" style="edgeStyle=orthogonalEdgeStyle;rounded=0;orthogonalLoop=1;jettySize=auto;html=1;entryX=0.5;entryY=0;entryDx=0;entryDy=0;" edge="1" parent="1" source="YeMgj4XDUtMSpW-O0WUr-14" target="YeMgj4XDUtMSpW-O0WUr-23">
          <mxGeometry relative="1" as="geometry" />
        </mxCell>
        <mxCell id="YeMgj4XDUtMSpW-O0WUr-14" value="&lt;font style=&quot;font-size: 16px;&quot;&gt;控制决策层&lt;/font&gt;" style="rounded=0;whiteSpace=wrap;html=1;fillColor=#dae8fc;strokeColor=#6c8ebf;" vertex="1" parent="1">
          <mxGeometry x="293.75" y="294" width="140" height="80" as="geometry" />
        </mxCell>
        <mxCell id="YeMgj4XDUtMSpW-O0WUr-85" style="edgeStyle=orthogonalEdgeStyle;rounded=0;orthogonalLoop=1;jettySize=auto;html=1;entryX=0.5;entryY=0;entryDx=0;entryDy=0;" edge="1" parent="1" source="YeMgj4XDUtMSpW-O0WUr-15" target="YeMgj4XDUtMSpW-O0WUr-16">
          <mxGeometry relative="1" as="geometry" />
        </mxCell>
        <mxCell id="YeMgj4XDUtMSpW-O0WUr-15" value="信息融合" style="rounded=0;whiteSpace=wrap;html=1;" vertex="1" parent="1">
          <mxGeometry x="93.75" y="634" width="60" height="30" as="geometry" />
        </mxCell>
        <mxCell id="YeMgj4XDUtMSpW-O0WUr-86" style="edgeStyle=orthogonalEdgeStyle;rounded=0;orthogonalLoop=1;jettySize=auto;html=1;entryX=0.5;entryY=0;entryDx=0;entryDy=0;" edge="1" parent="1" source="YeMgj4XDUtMSpW-O0WUr-16" target="YeMgj4XDUtMSpW-O0WUr-17">
          <mxGeometry relative="1" as="geometry" />
        </mxCell>
        <mxCell id="YeMgj4XDUtMSpW-O0WUr-16" value="TF变换" style="rounded=0;whiteSpace=wrap;html=1;" vertex="1" parent="1">
          <mxGeometry x="91.25" y="684" width="65" height="30" as="geometry" />
        </mxCell>
        <mxCell id="YeMgj4XDUtMSpW-O0WUr-17" value="发送坐标" style="rounded=0;whiteSpace=wrap;html=1;" vertex="1" parent="1">
          <mxGeometry x="93.75" y="734" width="60" height="30" as="geometry" />
        </mxCell>
        <mxCell id="YeMgj4XDUtMSpW-O0WUr-18" style="edgeStyle=orthogonalEdgeStyle;rounded=0;orthogonalLoop=1;jettySize=auto;html=1;exitX=0.5;exitY=1;exitDx=0;exitDy=0;" edge="1" parent="1" source="YeMgj4XDUtMSpW-O0WUr-16" target="YeMgj4XDUtMSpW-O0WUr-16">
          <mxGeometry relative="1" as="geometry" />
        </mxCell>
        <mxCell id="YeMgj4XDUtMSpW-O0WUr-70" style="edgeStyle=orthogonalEdgeStyle;rounded=0;orthogonalLoop=1;jettySize=auto;html=1;exitX=0.5;exitY=1;exitDx=0;exitDy=0;entryX=0.5;entryY=0;entryDx=0;entryDy=0;" edge="1" parent="1" source="YeMgj4XDUtMSpW-O0WUr-20" target="YeMgj4XDUtMSpW-O0WUr-12">
          <mxGeometry relative="1" as="geometry" />
        </mxCell>
        <mxCell id="YeMgj4XDUtMSpW-O0WUr-20" value="相机标定" style="rounded=0;whiteSpace=wrap;html=1;" vertex="1" parent="1">
          <mxGeometry x="93.75" y="444" width="60" height="30" as="geometry" />
        </mxCell>
        <mxCell id="YeMgj4XDUtMSpW-O0WUr-67" value="" style="edgeStyle=orthogonalEdgeStyle;rounded=0;orthogonalLoop=1;jettySize=auto;html=1;" edge="1" parent="1" source="YeMgj4XDUtMSpW-O0WUr-22" target="YeMgj4XDUtMSpW-O0WUr-20">
          <mxGeometry relative="1" as="geometry" />
        </mxCell>
        <mxCell id="YeMgj4XDUtMSpW-O0WUr-22" value="深度相机" style="rounded=0;whiteSpace=wrap;html=1;" vertex="1" parent="1">
          <mxGeometry x="93.75" y="394" width="60" height="30" as="geometry" />
        </mxCell>
        <mxCell id="YeMgj4XDUtMSpW-O0WUr-89" style="edgeStyle=orthogonalEdgeStyle;rounded=0;orthogonalLoop=1;jettySize=auto;html=1;entryX=0.5;entryY=0;entryDx=0;entryDy=0;" edge="1" parent="1" source="YeMgj4XDUtMSpW-O0WUr-23" target="YeMgj4XDUtMSpW-O0WUr-24">
          <mxGeometry relative="1" as="geometry" />
        </mxCell>
        <mxCell id="YeMgj4XDUtMSpW-O0WUr-23" value="UR机械臂" style="rounded=0;whiteSpace=wrap;html=1;" vertex="1" parent="1">
          <mxGeometry x="333.75" y="394" width="60" height="30" as="geometry" />
        </mxCell>
        <mxCell id="YeMgj4XDUtMSpW-O0WUr-90" style="edgeStyle=orthogonalEdgeStyle;rounded=0;orthogonalLoop=1;jettySize=auto;html=1;entryX=0.5;entryY=0;entryDx=0;entryDy=0;" edge="1" parent="1" source="YeMgj4XDUtMSpW-O0WUr-24" target="YeMgj4XDUtMSpW-O0WUr-28">
          <mxGeometry relative="1" as="geometry" />
        </mxCell>
        <mxCell id="YeMgj4XDUtMSpW-O0WUr-24" value="手眼标定" style="rounded=0;whiteSpace=wrap;html=1;" vertex="1" parent="1">
          <mxGeometry x="333.75" y="444" width="60" height="30" as="geometry" />
        </mxCell>
        <mxCell id="YeMgj4XDUtMSpW-O0WUr-93" style="edgeStyle=orthogonalEdgeStyle;rounded=0;orthogonalLoop=1;jettySize=auto;html=1;" edge="1" parent="1" source="YeMgj4XDUtMSpW-O0WUr-25" target="YeMgj4XDUtMSpW-O0WUr-27">
          <mxGeometry relative="1" as="geometry" />
        </mxCell>
        <mxCell id="YeMgj4XDUtMSpW-O0WUr-25" value="全局规划" style="rounded=0;whiteSpace=wrap;html=1;" vertex="1" parent="1">
          <mxGeometry x="293.75" y="568" width="60" height="30" as="geometry" />
        </mxCell>
        <mxCell id="YeMgj4XDUtMSpW-O0WUr-94" style="edgeStyle=orthogonalEdgeStyle;rounded=0;orthogonalLoop=1;jettySize=auto;html=1;entryX=0.5;entryY=0;entryDx=0;entryDy=0;" edge="1" parent="1" source="YeMgj4XDUtMSpW-O0WUr-26" target="YeMgj4XDUtMSpW-O0WUr-27">
          <mxGeometry relative="1" as="geometry" />
        </mxCell>
        <mxCell id="YeMgj4XDUtMSpW-O0WUr-26" value="局部规划" style="rounded=0;whiteSpace=wrap;html=1;" vertex="1" parent="1">
          <mxGeometry x="373.75" y="568" width="60" height="30" as="geometry" />
        </mxCell>
        <mxCell id="YeMgj4XDUtMSpW-O0WUr-95" style="edgeStyle=orthogonalEdgeStyle;rounded=0;orthogonalLoop=1;jettySize=auto;html=1;entryX=0.5;entryY=0;entryDx=0;entryDy=0;" edge="1" parent="1" source="YeMgj4XDUtMSpW-O0WUr-27" target="YeMgj4XDUtMSpW-O0WUr-29">
          <mxGeometry relative="1" as="geometry" />
        </mxCell>
        <mxCell id="YeMgj4XDUtMSpW-O0WUr-27" value="A*算法" style="rounded=0;whiteSpace=wrap;html=1;" vertex="1" parent="1">
          <mxGeometry x="333.75" y="634" width="60" height="30" as="geometry" />
        </mxCell>
        <mxCell id="YeMgj4XDUtMSpW-O0WUr-91" style="edgeStyle=orthogonalEdgeStyle;rounded=0;orthogonalLoop=1;jettySize=auto;html=1;entryX=0.5;entryY=0;entryDx=0;entryDy=0;" edge="1" parent="1" source="YeMgj4XDUtMSpW-O0WUr-28" target="YeMgj4XDUtMSpW-O0WUr-25">
          <mxGeometry relative="1" as="geometry" />
        </mxCell>
        <mxCell id="YeMgj4XDUtMSpW-O0WUr-92" style="edgeStyle=orthogonalEdgeStyle;rounded=0;orthogonalLoop=1;jettySize=auto;html=1;entryX=0.5;entryY=0;entryDx=0;entryDy=0;" edge="1" parent="1" source="YeMgj4XDUtMSpW-O0WUr-28" target="YeMgj4XDUtMSpW-O0WUr-26">
          <mxGeometry relative="1" as="geometry" />
        </mxCell>
        <mxCell id="YeMgj4XDUtMSpW-O0WUr-28" value="轨迹规划" style="rounded=0;whiteSpace=wrap;html=1;" vertex="1" parent="1">
          <mxGeometry x="333.75" y="500" width="60" height="30" as="geometry" />
        </mxCell>
        <mxCell id="YeMgj4XDUtMSpW-O0WUr-96" style="edgeStyle=orthogonalEdgeStyle;rounded=0;orthogonalLoop=1;jettySize=auto;html=1;entryX=0.5;entryY=0;entryDx=0;entryDy=0;" edge="1" parent="1" source="YeMgj4XDUtMSpW-O0WUr-29" target="YeMgj4XDUtMSpW-O0WUr-30">
          <mxGeometry relative="1" as="geometry" />
        </mxCell>
        <mxCell id="YeMgj4XDUtMSpW-O0WUr-29" value="Unity仿真" style="rounded=0;whiteSpace=wrap;html=1;" vertex="1" parent="1">
          <mxGeometry x="333.75" y="684" width="60" height="30" as="geometry" />
        </mxCell>
        <mxCell id="YeMgj4XDUtMSpW-O0WUr-30" value="发送预警" style="rounded=0;whiteSpace=wrap;html=1;" vertex="1" parent="1">
          <mxGeometry x="333.75" y="734" width="60" height="30" as="geometry" />
        </mxCell>
        <mxCell id="YeMgj4XDUtMSpW-O0WUr-98" style="edgeStyle=orthogonalEdgeStyle;rounded=0;orthogonalLoop=1;jettySize=auto;html=1;entryX=0.5;entryY=0;entryDx=0;entryDy=0;" edge="1" parent="1" source="YeMgj4XDUtMSpW-O0WUr-31" target="YeMgj4XDUtMSpW-O0WUr-32">
          <mxGeometry relative="1" as="geometry" />
        </mxCell>
        <mxCell id="YeMgj4XDUtMSpW-O0WUr-31" value="Hololens2" style="rounded=0;whiteSpace=wrap;html=1;" vertex="1" parent="1">
          <mxGeometry x="611.25" y="394" width="60" height="30" as="geometry" />
        </mxCell>
        <mxCell id="YeMgj4XDUtMSpW-O0WUr-105" style="edgeStyle=orthogonalEdgeStyle;rounded=0;orthogonalLoop=1;jettySize=auto;html=1;entryX=0.5;entryY=0;entryDx=0;entryDy=0;exitX=0;exitY=0.5;exitDx=0;exitDy=0;" edge="1" parent="1" source="YeMgj4XDUtMSpW-O0WUr-32" target="YeMgj4XDUtMSpW-O0WUr-33">
          <mxGeometry relative="1" as="geometry" />
        </mxCell>
        <mxCell id="YeMgj4XDUtMSpW-O0WUr-32" value="环境建模" style="rounded=0;whiteSpace=wrap;html=1;" vertex="1" parent="1">
          <mxGeometry x="611.25" y="444" width="60" height="30" as="geometry" />
        </mxCell>
        <mxCell id="YeMgj4XDUtMSpW-O0WUr-107" style="edgeStyle=orthogonalEdgeStyle;rounded=0;orthogonalLoop=1;jettySize=auto;html=1;entryX=0.5;entryY=0;entryDx=0;entryDy=0;" edge="1" parent="1" source="YeMgj4XDUtMSpW-O0WUr-33" target="YeMgj4XDUtMSpW-O0WUr-35">
          <mxGeometry relative="1" as="geometry" />
        </mxCell>
        <mxCell id="YeMgj4XDUtMSpW-O0WUr-33" value="装配引导" style="rounded=0;whiteSpace=wrap;html=1;" vertex="1" parent="1">
          <mxGeometry x="551.25" y="484" width="60" height="30" as="geometry" />
        </mxCell>
        <mxCell id="YeMgj4XDUtMSpW-O0WUr-110" style="edgeStyle=orthogonalEdgeStyle;rounded=0;orthogonalLoop=1;jettySize=auto;html=1;entryX=0.5;entryY=0;entryDx=0;entryDy=0;" edge="1" parent="1" source="YeMgj4XDUtMSpW-O0WUr-34" target="YeMgj4XDUtMSpW-O0WUr-40">
          <mxGeometry relative="1" as="geometry" />
        </mxCell>
        <mxCell id="YeMgj4XDUtMSpW-O0WUr-34" value="安全预警" style="rounded=0;whiteSpace=wrap;html=1;" vertex="1" parent="1">
          <mxGeometry x="671.25" y="484" width="60" height="30" as="geometry" />
        </mxCell>
        <mxCell id="YeMgj4XDUtMSpW-O0WUr-35" value="实时反馈" style="rounded=0;whiteSpace=wrap;html=1;" vertex="1" parent="1">
          <mxGeometry x="551.25" y="538" width="60" height="30" as="geometry" />
        </mxCell>
        <mxCell id="YeMgj4XDUtMSpW-O0WUr-37" value="机械臂状态" style="rounded=0;whiteSpace=wrap;html=1;" vertex="1" parent="1">
          <mxGeometry x="511.25" y="598" width="70" height="30" as="geometry" />
        </mxCell>
        <mxCell id="YeMgj4XDUtMSpW-O0WUr-38" value="错误检测" style="rounded=0;whiteSpace=wrap;html=1;" vertex="1" parent="1">
          <mxGeometry x="591.25" y="598" width="60" height="30" as="geometry" />
        </mxCell>
        <mxCell id="YeMgj4XDUtMSpW-O0WUr-114" style="edgeStyle=orthogonalEdgeStyle;rounded=0;orthogonalLoop=1;jettySize=auto;html=1;entryX=0.5;entryY=0;entryDx=0;entryDy=0;" edge="1" parent="1" source="YeMgj4XDUtMSpW-O0WUr-40" target="YeMgj4XDUtMSpW-O0WUr-42">
          <mxGeometry relative="1" as="geometry" />
        </mxCell>
        <mxCell id="YeMgj4XDUtMSpW-O0WUr-40" value="语音" style="rounded=0;whiteSpace=wrap;html=1;" vertex="1" parent="1">
          <mxGeometry x="641.25" y="544" width="60" height="30" as="geometry" />
        </mxCell>
        <mxCell id="YeMgj4XDUtMSpW-O0WUr-115" style="edgeStyle=orthogonalEdgeStyle;rounded=0;orthogonalLoop=1;jettySize=auto;html=1;" edge="1" parent="1" source="YeMgj4XDUtMSpW-O0WUr-41" target="YeMgj4XDUtMSpW-O0WUr-42">
          <mxGeometry relative="1" as="geometry" />
        </mxCell>
        <mxCell id="YeMgj4XDUtMSpW-O0WUr-41" value="视频" style="rounded=0;whiteSpace=wrap;html=1;" vertex="1" parent="1">
          <mxGeometry x="701.25" y="544" width="60" height="30" as="geometry" />
        </mxCell>
        <mxCell id="YeMgj4XDUtMSpW-O0WUr-42" value="轨迹规划" style="rounded=0;whiteSpace=wrap;html=1;" vertex="1" parent="1">
          <mxGeometry x="671.25" y="598" width="60" height="30" as="geometry" />
        </mxCell>
        <mxCell id="YeMgj4XDUtMSpW-O0WUr-121" style="edgeStyle=orthogonalEdgeStyle;rounded=0;orthogonalLoop=1;jettySize=auto;html=1;entryX=0.5;entryY=0;entryDx=0;entryDy=0;" edge="1" parent="1" source="YeMgj4XDUtMSpW-O0WUr-44" target="YeMgj4XDUtMSpW-O0WUr-45">
          <mxGeometry relative="1" as="geometry" />
        </mxCell>
        <mxCell id="YeMgj4XDUtMSpW-O0WUr-122" style="edgeStyle=orthogonalEdgeStyle;rounded=0;orthogonalLoop=1;jettySize=auto;html=1;entryX=0.75;entryY=0;entryDx=0;entryDy=0;" edge="1" parent="1" source="YeMgj4XDUtMSpW-O0WUr-44" target="YeMgj4XDUtMSpW-O0WUr-46">
          <mxGeometry relative="1" as="geometry" />
        </mxCell>
        <mxCell id="YeMgj4XDUtMSpW-O0WUr-44" value="&lt;font style=&quot;font-size: 16px;&quot;&gt;系统集成层&lt;/font&gt;" style="rounded=0;whiteSpace=wrap;html=1;fillColor=#dae8fc;strokeColor=#6c8ebf;" vertex="1" parent="1">
          <mxGeometry x="574.25" y="659" width="139.5" height="55" as="geometry" />
        </mxCell>
        <mxCell id="YeMgj4XDUtMSpW-O0WUr-45" value="TCP/IP通信" style="rounded=0;whiteSpace=wrap;html=1;" vertex="1" parent="1">
          <mxGeometry x="551.25" y="749" width="70" height="30" as="geometry" />
        </mxCell>
        <mxCell id="YeMgj4XDUtMSpW-O0WUr-46" value="数据中台" style="rounded=0;whiteSpace=wrap;html=1;" vertex="1" parent="1">
          <mxGeometry x="671.25" y="749" width="60" height="30" as="geometry" />
        </mxCell>
        <mxCell id="YeMgj4XDUtMSpW-O0WUr-124" style="edgeStyle=orthogonalEdgeStyle;rounded=0;orthogonalLoop=1;jettySize=auto;html=1;entryX=0.5;entryY=0;entryDx=0;entryDy=0;" edge="1" parent="1" source="YeMgj4XDUtMSpW-O0WUr-47" target="YeMgj4XDUtMSpW-O0WUr-48">
          <mxGeometry relative="1" as="geometry" />
        </mxCell>
        <mxCell id="YeMgj4XDUtMSpW-O0WUr-127" style="edgeStyle=orthogonalEdgeStyle;rounded=0;orthogonalLoop=1;jettySize=auto;html=1;exitX=1;exitY=0.5;exitDx=0;exitDy=0;entryX=0.5;entryY=0;entryDx=0;entryDy=0;" edge="1" parent="1" source="YeMgj4XDUtMSpW-O0WUr-47" target="YeMgj4XDUtMSpW-O0WUr-49">
          <mxGeometry relative="1" as="geometry" />
        </mxCell>
        <mxCell id="YeMgj4XDUtMSpW-O0WUr-132" style="edgeStyle=orthogonalEdgeStyle;rounded=0;orthogonalLoop=1;jettySize=auto;html=1;entryX=0.5;entryY=0;entryDx=0;entryDy=0;" edge="1" parent="1" source="YeMgj4XDUtMSpW-O0WUr-47" target="YeMgj4XDUtMSpW-O0WUr-50">
          <mxGeometry relative="1" as="geometry" />
        </mxCell>
        <mxCell id="YeMgj4XDUtMSpW-O0WUr-47" value="&lt;font style=&quot;font-size: 16px;&quot;&gt;大语言模型中枢&lt;/font&gt;" style="rounded=0;whiteSpace=wrap;html=1;fillColor=#dae8fc;strokeColor=#6c8ebf;" vertex="1" parent="1">
          <mxGeometry x="334.5" y="824" width="140" height="80" as="geometry" />
        </mxCell>
        <mxCell id="YeMgj4XDUtMSpW-O0WUr-48" value="任务解析" style="rounded=0;whiteSpace=wrap;html=1;" vertex="1" parent="1">
          <mxGeometry x="270.75" y="934" width="60" height="30" as="geometry" />
        </mxCell>
        <mxCell id="YeMgj4XDUtMSpW-O0WUr-49" value="工艺规划" style="rounded=0;whiteSpace=wrap;html=1;" vertex="1" parent="1">
          <mxGeometry x="611.25" y="934" width="60" height="30" as="geometry" />
        </mxCell>
        <mxCell id="YeMgj4XDUtMSpW-O0WUr-50" value="智能交互" style="rounded=0;whiteSpace=wrap;html=1;" vertex="1" parent="1">
          <mxGeometry x="488.25" y="934" width="60" height="30" as="geometry" />
        </mxCell>
        <mxCell id="YeMgj4XDUtMSpW-O0WUr-51" value="" style="rounded=1;whiteSpace=wrap;html=1;fillColor=none;strokeColor=light-dark(#000000, #c98531);dashed=1;" vertex="1" parent="1">
          <mxGeometry x="33.75" y="270" width="210" height="514" as="geometry" />
        </mxCell>
        <mxCell id="YeMgj4XDUtMSpW-O0WUr-52" value="" style="rounded=1;whiteSpace=wrap;html=1;fillColor=none;strokeColor=light-dark(#000000, #c98531);dashed=1;" vertex="1" parent="1">
          <mxGeometry x="262.75" y="270" width="210" height="514" as="geometry" />
        </mxCell>
        <mxCell id="YeMgj4XDUtMSpW-O0WUr-56" value="" style="rounded=1;whiteSpace=wrap;html=1;fillColor=none;strokeColor=light-dark(#000000, #c98531);dashed=1;" vertex="1" parent="1">
          <mxGeometry x="497.5" y="274" width="272.5" height="370" as="geometry" />
        </mxCell>
        <mxCell id="YeMgj4XDUtMSpW-O0WUr-58" value="" style="rounded=1;whiteSpace=wrap;html=1;fillColor=none;strokeColor=light-dark(#000000, #c98531);dashed=1;" vertex="1" parent="1">
          <mxGeometry x="497.5" y="654" width="272.5" height="130" as="geometry" />
        </mxCell>
        <mxCell id="YeMgj4XDUtMSpW-O0WUr-60" value="" style="rounded=1;whiteSpace=wrap;html=1;fillColor=none;strokeColor=light-dark(#000000, #c98531);dashed=1;" vertex="1" parent="1">
          <mxGeometry x="30" y="814" width="740" height="170" as="geometry" />
        </mxCell>
        <mxCell id="YeMgj4XDUtMSpW-O0WUr-62" value="智能诊断" style="rounded=0;whiteSpace=wrap;html=1;" vertex="1" parent="1">
          <mxGeometry x="130.75" y="934" width="60" height="30" as="geometry" />
        </mxCell>
        <mxCell id="YeMgj4XDUtMSpW-O0WUr-106" style="edgeStyle=orthogonalEdgeStyle;rounded=0;orthogonalLoop=1;jettySize=auto;html=1;entryX=0.573;entryY=-0.033;entryDx=0;entryDy=0;entryPerimeter=0;exitX=1;exitY=0.5;exitDx=0;exitDy=0;" edge="1" parent="1" source="YeMgj4XDUtMSpW-O0WUr-32" target="YeMgj4XDUtMSpW-O0WUr-34">
          <mxGeometry relative="1" as="geometry" />
        </mxCell>
        <mxCell id="YeMgj4XDUtMSpW-O0WUr-111" style="edgeStyle=orthogonalEdgeStyle;rounded=0;orthogonalLoop=1;jettySize=auto;html=1;entryX=0.577;entryY=0.071;entryDx=0;entryDy=0;entryPerimeter=0;" edge="1" parent="1" source="YeMgj4XDUtMSpW-O0WUr-34" target="YeMgj4XDUtMSpW-O0WUr-41">
          <mxGeometry relative="1" as="geometry" />
        </mxCell>
        <mxCell id="YeMgj4XDUtMSpW-O0WUr-117" style="edgeStyle=orthogonalEdgeStyle;rounded=0;orthogonalLoop=1;jettySize=auto;html=1;entryX=0.434;entryY=0.09;entryDx=0;entryDy=0;entryPerimeter=0;" edge="1" parent="1" source="YeMgj4XDUtMSpW-O0WUr-35" target="YeMgj4XDUtMSpW-O0WUr-37">
          <mxGeometry relative="1" as="geometry" />
        </mxCell>
        <mxCell id="YeMgj4XDUtMSpW-O0WUr-118" style="edgeStyle=orthogonalEdgeStyle;rounded=0;orthogonalLoop=1;jettySize=auto;html=1;entryX=0.592;entryY=-0.005;entryDx=0;entryDy=0;entryPerimeter=0;" edge="1" parent="1" source="YeMgj4XDUtMSpW-O0WUr-35" target="YeMgj4XDUtMSpW-O0WUr-38">
          <mxGeometry relative="1" as="geometry" />
        </mxCell>
        <mxCell id="YeMgj4XDUtMSpW-O0WUr-123" style="edgeStyle=orthogonalEdgeStyle;rounded=0;orthogonalLoop=1;jettySize=auto;html=1;entryX=0.644;entryY=-0.106;entryDx=0;entryDy=0;entryPerimeter=0;" edge="1" parent="1" source="YeMgj4XDUtMSpW-O0WUr-47" target="YeMgj4XDUtMSpW-O0WUr-62">
          <mxGeometry relative="1" as="geometry" />
        </mxCell>
      </root>
    </mxGraphModel>
  </diagram>
</mxfile>
